<?xml version="1.0" encoding="UTF-8" standalone="no"?>
<!-- Generator: Adobe Illustrator 18.1.1, SVG Export Plug-In . SVG Version: 6.00 Build 0)  -->

<svg
   xmlns:dc="http://purl.org/dc/elements/1.1/"
   xmlns:cc="http://creativecommons.org/ns#"
   xmlns:rdf="http://www.w3.org/1999/02/22-rdf-syntax-ns#"
   xmlns:svg="http://www.w3.org/2000/svg"
   xmlns="http://www.w3.org/2000/svg"
   xmlns:sodipodi="http://sodipodi.sourceforge.net/DTD/sodipodi-0.dtd"
   xmlns:inkscape="http://www.inkscape.org/namespaces/inkscape"
   version="1.1"
   id="Layer_1"
   x="0px"
   y="0px"
   width="340"
   height="59.599998"
   viewBox="-344 221.5 340 59.599996"
   enable-background="new -344 221.5 340 78.3"
   xml:space="preserve"
   inkscape:version="0.91 r13725"
   sodipodi:docname="logo-cae.svg"
   inkscape:export-filename="/home/mokush/dev/reservr-act/public/images/logo-cae.png"
   inkscape:export-xdpi="90"
   inkscape:export-ydpi="90"><metadata
     id="metadata51"><rdf:RDF><cc:Work
         rdf:about=""><dc:format>image/svg+xml</dc:format><dc:type
           rdf:resource="http://purl.org/dc/dcmitype/StillImage" /><dc:title /></cc:Work></rdf:RDF></metadata><defs
     id="defs49" /><sodipodi:namedview
     pagecolor="#ffffff"
     bordercolor="#666666"
     borderopacity="1"
     objecttolerance="10"
     gridtolerance="10"
     guidetolerance="10"
     inkscape:pageopacity="0"
     inkscape:pageshadow="2"
     inkscape:window-width="1244"
     inkscape:window-height="800"
     id="namedview47"
     showgrid="false"
     fit-margin-top="0"
     fit-margin-left="0"
     fit-margin-right="0"
     fit-margin-bottom="0"
     inkscape:zoom="0.95294118"
     inkscape:cx="139.5679"
     inkscape:cy="20.449998"
     inkscape:window-x="36"
     inkscape:window-y="0"
     inkscape:window-maximized="1"
     inkscape:current-layer="Layer_1" /><g
     id="g3"
     style="fill:#2498ca;fill-opacity:1"><g
       id="g5"
       style="fill:#2498ca;fill-opacity:1"><path
         d="m -332.3,273.5 c 5.5,0 9.4,-3.6 10.2,-9.6 l -3,0 c -0.4,4.1 -3.4,7 -7.2,7 -5.8,0 -8.7,-5.2 -8.7,-10.5 0,-5.3 2.9,-10.5 8.7,-10.5 3.9,0 6.2,2.2 7,5.9 l 3,0 c -0.7,-5.6 -4.7,-8.5 -10,-8.5 -7.6,0 -11.7,6 -11.7,13.1 0,7.1 4.1,13.1 11.7,13.1 z"
         id="path7"
         style="fill:#2498ca;fill-opacity:1"
         inkscape:connector-curvature="0" /><path
         d="m -314.9,259.6 c 0,-5.1 3.7,-9.1 9.2,-8.9 l 0,-3 c -4.5,-0.2 -7.8,2.2 -9.3,6.1 l -0.1,0 0,-5.8 -2.8,0 0,24.7 3,0 0,-13.1 z"
         id="path9"
         style="fill:#2498ca;fill-opacity:1"
         inkscape:connector-curvature="0" /><path
         d="m -293.8,273.5 c 6.2,0 9.5,-3.3 10.8,-8.9 l -3,0 c -1,3.7 -3.4,6.3 -7.8,6.3 -5.8,0 -8.1,-5.3 -8.1,-9.7 l 19,0 c 0.2,-6.9 -2.9,-13.9 -10.9,-13.9 -7.8,0 -11.1,6.6 -11.1,13.1 -0.1,7 3.2,13.1 11.1,13.1 z"
         id="path11"
         style="fill:#2498ca;fill-opacity:1"
         inkscape:connector-curvature="0" /><path
         d="m -230,247.3 c -7.8,0 -11.1,6.6 -11.1,13.1 0,7 3.3,13.1 11.1,13.1 6.2,0 9.5,-3.3 10.8,-8.9 l -3,0 c -1,3.7 -3.4,6.3 -7.8,6.3 -5.8,0 -8.1,-5.3 -8.1,-9.7 l 19,0 c 0.2,-6.9 -2.9,-13.9 -10.9,-13.9 z"
         id="path13"
         style="fill:#2498ca;fill-opacity:1"
         inkscape:connector-curvature="0" /><path
         d="m -249.3,240.6 -3,0 0,7.4 -4.3,0 0,2.5 4.3,0 0,17 c 0,4.2 1.3,5.5 5.4,5.5 0.9,0 1.8,-0.1 2.7,-0.1 l 0,-2.6 c -0.9,0.2 -1.8,0.2 -2.6,0.2 -2.2,-0.1 -2.4,-1.3 -2.4,-3.3 l 0,-16.6 5,0 0,-2.5 -5,0 -0.1,-7.5 0,0 z"
         id="path15"
         style="fill:#2498ca;fill-opacity:1"
         inkscape:connector-curvature="0" /><path
         d="m -260.1,268.4 0,-13.1 c 0,-6.6 -4.7,-7.9 -9.1,-7.9 -5.6,0 -9.7,2.5 -10,8.3 l 3,0 c 0.1,-4 2.9,-5.7 6.6,-5.7 3.5,0 6.5,1 6.5,5.1 0,2.7 -1.4,3.1 -3.9,3.4 -6.5,0.8 -13.3,1 -13.3,7.9 0,5 3.7,7.2 8.3,7.2 4.7,0 6.9,-1.8 9,-5 l 0.1,0 c 0,2.6 0.5,4.3 3.5,4.3 0.8,0 1.3,0 2,-0.2 l 0,-2.5 c -0.2,0.1 -0.6,0.2 -1,0.2 -1.1,-0.2 -1.7,-0.9 -1.7,-2 z"
         id="path17"
         style="fill:#2498ca;fill-opacity:1"
         inkscape:connector-curvature="0" /></g><g
       id="g19"
       style="fill:#2498ca;fill-opacity:1"><path
         d="m -183.5,268.4 0,-13.1 c 0,-6.6 -4.7,-7.9 -9.1,-7.9 -5.6,0 -9.7,2.5 -10,8.3 l 3,0 c 0.1,-4 2.9,-5.7 6.6,-5.7 3.5,0 6.5,1 6.5,5.1 0,2.7 -1.4,3.1 -3.9,3.4 -6.5,0.8 -13.3,1 -13.3,7.9 0,5 3.7,7.2 8.3,7.2 4.7,0 6.9,-1.8 9,-5 l 0.1,0 c 0,2.6 0.5,4.3 3.5,4.3 0.8,0 1.3,0 2,-0.2 l 0,-2.5 c -0.2,0.1 -0.6,0.2 -1,0.2 -1.1,-0.2 -1.7,-0.9 -1.7,-2 z"
         id="path21"
         style="fill:#2498ca;fill-opacity:1"
         inkscape:connector-curvature="0" /><path
         d="m -142.8,270.4 c -0.9,0.1 -1.7,0.1 -2.6,0.1 -2.2,-0.1 -2.4,-1.3 -2.4,-3.3 l 0,-16.6 5,0 0,-2.5 -5,0 0,-7.4 -3,0 0,7.4 -4.3,0 0,2.5 4.3,0 0,16.9 c 0,4.2 1.3,5.6 5.4,5.6 0.9,0 1.8,-0.1 2.7,-0.1 l -0.1,-2.6 0,0 z"
         id="path23"
         style="fill:#2498ca;fill-opacity:1"
         inkscape:connector-curvature="0" /><path
         d="m -167,270.9 c -5.8,0 -8.7,-5.3 -8.7,-10.5 0,-5.3 2.9,-10.5 8.7,-10.5 3.9,0 6.2,2.3 7,5.9 l 3,0 c -0.7,-5.6 -4.7,-8.5 -10,-8.5 -7.6,0 -11.7,6 -11.7,13.1 0,7.1 4.1,13.1 11.7,13.1 5.5,0 9.4,-3.6 10.2,-9.6 l -3,0 c -0.5,4.1 -3.5,7 -7.2,7 z"
         id="path25"
         style="fill:#2498ca;fill-opacity:1"
         inkscape:connector-curvature="0" /></g><g
       id="g27"
       style="fill:#2498ca;fill-opacity:1"><rect
         x="-75"
         y="237.7"
         width="3"
         height="4.8000002"
         id="rect29"
         style="fill:#2498ca;fill-opacity:1" /><path
         d="m -115.6,246.5 c -7.8,0 -11.1,6.6 -11.1,13.1 0,7 3.3,13.1 11.1,13.1 6.2,0 9.5,-3.3 10.8,-8.8 l -3,0 c -1,3.7 -3.3,6.3 -7.8,6.3 -5.8,0 -8.1,-5.3 -8.1,-9.7 l 19,0 c 0.2,-7.1 -3,-14 -10.9,-14 z"
         id="path31"
         style="fill:#2498ca;fill-opacity:1"
         inkscape:connector-curvature="0" /><path
         d="m -89.8,246.5 c -3.5,0 -6.8,2 -7.9,5 l -0.1,0 0,-4.3 -3,0 0,24.7 3,0 0,-14.4 c 0.1,-4.8 3,-8.5 7.7,-8.5 4.9,0 6.3,3.2 6.3,7.5 l 0,15.4 3,0 0,-15.9 c 0.1,-5.9 -2,-9.5 -9,-9.5 z"
         id="path33"
         style="fill:#2498ca;fill-opacity:1"
         inkscape:connector-curvature="0" /><path
         d="m -75,274.9 c 0,2.1 -0.4,3.6 -2.7,3.6 -0.5,0 -1.1,0 -1.6,0 l 0,2.5 c 0.7,0 1.4,0.1 2.1,0.1 4.3,0 5.3,-3.2 5.3,-6.8 l 0,-27 -3,0 -0.1,27.6 0,0 z"
         id="path35"
         style="fill:#2498ca;fill-opacity:1"
         inkscape:connector-curvature="0" /><path
         d="m -55.7,246.5 c -7.6,0 -11.7,6 -11.7,13.1 0,7.1 4.1,13.1 11.7,13.1 7.6,0 11.7,-6 11.7,-13.1 -0.1,-7.1 -4.2,-13.1 -11.7,-13.1 z"
         id="path37"
         style="fill:#2498ca;fill-opacity:1"
         inkscape:connector-curvature="0" /><path
         d="m -6.2,221.5 -24.8,46.8 -8.1,-21.1 -3.2,0 9.9,24.6 -1.1,2.8 c -1,2.3 -1.6,3.9 -4.3,3.9 -0.7,0 -1.3,-0.1 -2.1,-0.2 l 0,2.5 c 0.5,0.2 1.1,0.2 2.3,0.2 3.8,0 4.8,-1.2 6.5,-5.4 L -4,223.7 -6.2,221.5 Z"
         id="path39"
         style="fill:#2498ca;fill-opacity:1"
         inkscape:connector-curvature="0" /></g><circle
       cx="-215"
       cy="271.20001"
       r="2.3"
       id="circle41"
       style="fill:#2498ca;fill-opacity:1" /><circle
       cx="-137.39999"
       cy="271.20001"
       r="2.3"
       id="circle43"
       style="fill:#2498ca;fill-opacity:1" /></g></svg>