<?xml version="1.0" encoding="UTF-8" standalone="no"?>
<!-- Created with Inkscape (http://www.inkscape.org/) -->

<svg
   xmlns:dc="http://purl.org/dc/elements/1.1/"
   xmlns:cc="http://creativecommons.org/ns#"
   xmlns:rdf="http://www.w3.org/1999/02/22-rdf-syntax-ns#"
   xmlns:svg="http://www.w3.org/2000/svg"
   xmlns="http://www.w3.org/2000/svg"
   xmlns:sodipodi="http://sodipodi.sourceforge.net/DTD/sodipodi-0.dtd"
   xmlns:inkscape="http://www.inkscape.org/namespaces/inkscape"
   width="147.21002mm"
   height="23.148382mm"
   viewBox="0 0 521.61031 82.021826"
   id="svg2"
   version="1.1"
   inkscape:version="0.91 r13725"
   sodipodi:docname="logo.svg"
   inkscape:export-filename="/home/mokush/dev/reservr/artwork/text3336.png"
   inkscape:export-xdpi="34.015335"
   inkscape:export-ydpi="34.015335">
  <defs
     id="defs4" />
  <sodipodi:namedview
     id="base"
     pagecolor="#ffffff"
     bordercolor="#666666"
     borderopacity="1.0"
     inkscape:pageopacity="0.0"
     inkscape:pageshadow="2"
     inkscape:zoom="1.4142136"
     inkscape:cx="339.02121"
     inkscape:cy="69.898878"
     inkscape:document-units="px"
     inkscape:current-layer="layer1"
     showgrid="false"
     inkscape:window-width="1880"
     inkscape:window-height="1080"
     inkscape:window-x="40"
     inkscape:window-y="0"
     inkscape:window-maximized="1"
     fit-margin-top="0"
     fit-margin-left="0"
     fit-margin-right="0"
     fit-margin-bottom="0">
    <inkscape:grid
       type="xygrid"
       id="grid3359"
       originx="-78.538915"
       originy="-851.78418" />
  </sodipodi:namedview>
  <metadata
     id="metadata7">
    <rdf:RDF>
      <cc:Work
         rdf:about="">
        <dc:format>image/svg+xml</dc:format>
        <dc:type
           rdf:resource="http://purl.org/dc/dcmitype/StillImage" />
        <dc:title></dc:title>
      </cc:Work>
    </rdf:RDF>
  </metadata>
  <g
     inkscape:label="Layer 1"
     inkscape:groupmode="layer"
     id="layer1"
     transform="translate(-78.538912,-118.55618)">
    <g
       style="font-style:normal;font-weight:normal;font-size:149.94850159px;line-height:125%;font-family:Sans;letter-spacing:0px;word-spacing:0px;fill:#ffffff;fill-opacity:1;stroke:none;stroke-width:1px;stroke-linecap:butt;stroke-linejoin:miter;stroke-opacity:1"
       id="text3336"
       transform="translate(-19.285714,-147.85714)"
       inkscape:export-xdpi="33.990891"
       inkscape:export-ydpi="33.990891">
      <path
         d="m 151.35624,292.35441 q -8.24717,0 -14.99485,1.79939 -6.74768,1.79938 -10.04655,5.99794 l 0,46.78393 -28.490214,0 0,-78.87291 26.091044,0 0,14.99485 q 4.19855,-7.94727 10.34644,-12.14583 6.29784,-4.34851 13.49537,-4.34851 2.84902,0 3.59876,0.14995 l 0,25.64119 z"
         style="font-style:normal;font-variant:normal;font-weight:900;font-stretch:normal;font-family:Raleway;-inkscape-font-specification:'Raleway Heavy';fill:#ffffff"
         id="path3345"
         inkscape:connector-curvature="0" />
      <path
         d="m 198.45647,348.43515 q -10.34644,0 -18.44366,-3.14891 -8.09722,-3.29887 -13.64532,-8.84697 -5.39814,-5.54809 -8.24716,-12.74562 -2.84903,-7.19753 -2.84903,-15.1448 0,-8.54706 2.69908,-16.19444 2.84902,-7.64737 8.24717,-13.34541 5.54809,-5.69805 13.49536,-8.99691 8.09722,-3.44882 18.74356,-3.44882 10.4964,0 18.59362,3.44882 8.09722,3.29886 13.49536,8.99691 5.5481,5.54809 8.24717,13.04552 2.84902,7.34747 2.84902,15.44469 0,2.24923 -0.2999,4.64841 -0.14994,2.24922 -0.44984,4.04861 l -55.331,0 q 0.44985,6.29783 4.64841,9.14685 4.19855,2.69908 9.14685,2.69908 4.64841,0 8.69702,-2.09928 4.19856,-2.09928 5.54809,-5.84799 l 24.14171,6.89763 q -4.79835,9.44675 -14.8449,15.44469 -9.8966,5.99794 -24.44161,5.99794 z m 12.59568,-49.33305 q -0.74975,-5.69805 -4.19856,-8.99691 -3.44882,-3.29887 -8.84696,-3.29887 -5.39815,0 -8.84696,3.29887 -3.44882,3.29886 -4.19856,8.99691 l 26.09104,0 z"
         style="font-style:normal;font-variant:normal;font-weight:900;font-stretch:normal;font-family:Raleway;-inkscape-font-specification:'Raleway Heavy';fill:#ffffff"
         id="path3347"
         inkscape:connector-curvature="0" />
      <path
         d="m 286.08263,348.43515 q -4.9483,0 -10.64634,-0.74974 -5.69804,-0.74974 -11.24614,-1.94933 -5.39814,-1.19959 -10.49639,-2.84902 -5.09825,-1.79938 -8.84696,-3.89866 l 10.94624,-19.34336 q 8.24717,4.34851 15.74459,6.59774 7.49743,2.24922 13.94521,2.24922 7.49743,0 7.49743,-3.74871 0,-1.94933 -2.99897,-3.44881 -2.99897,-1.49949 -11.39609,-3.59877 -8.39712,-2.24923 -14.09516,-4.49845 -5.69804,-2.24923 -9.14686,-4.9483 -3.44881,-2.84903 -4.9483,-6.14789 -1.49948,-3.44882 -1.49948,-7.94727 0,-5.99794 2.39917,-11.09619 2.54913,-5.09825 7.04758,-8.84696 4.49846,-3.74872 10.64635,-5.69805 6.29783,-2.09928 13.64531,-2.09928 7.94727,0 16.94418,2.24923 9.14686,2.24923 18.59361,6.59774 l -10.94624,18.14376 q -8.39711,-3.89866 -13.94521,-5.54809 -5.54809,-1.79938 -10.64634,-1.79938 -3.29887,0 -5.39815,1.04964 -1.94933,0.89969 -1.94933,2.99897 0,1.19958 0.5998,2.09928 0.59979,0.74974 2.09928,1.49948 1.49948,0.74974 4.04861,1.64943 2.69907,0.74975 6.59773,1.64944 8.99691,2.24923 15.1448,4.79835 6.14789,2.39918 9.74665,5.39815 3.74871,2.84902 5.2482,6.59773 1.64943,3.59876 1.64943,8.39712 0,12.14582 -9.29681,19.1934 -9.14685,7.04758 -25.0414,7.04758 z"
         style="font-style:normal;font-variant:normal;font-weight:900;font-stretch:normal;font-family:Raleway;-inkscape-font-specification:'Raleway Heavy';fill:#ffffff"
         id="path3349"
         inkscape:connector-curvature="0" />
      <path
         d="m 368.90575,348.43515 q -10.34645,0 -18.44367,-3.14891 -8.09722,-3.29887 -13.64531,-8.84697 -5.39815,-5.54809 -8.24717,-12.74562 -2.84902,-7.19753 -2.84902,-15.1448 0,-8.54706 2.69907,-16.19444 2.84903,-7.64737 8.24717,-13.34541 5.5481,-5.69805 13.49537,-8.99691 8.09722,-3.44882 18.74356,-3.44882 10.49639,0 18.59361,3.44882 8.09722,3.29886 13.49537,8.99691 5.54809,5.54809 8.24717,13.04552 2.84902,7.34747 2.84902,15.44469 0,2.24923 -0.2999,4.64841 -0.14995,2.24922 -0.44984,4.04861 l -55.331,0 q 0.44984,6.29783 4.6484,9.14685 4.19856,2.69908 9.14686,2.69908 4.6484,0 8.69701,-2.09928 4.19856,-2.09928 5.5481,-5.84799 l 24.14171,6.89763 q -4.79836,9.44675 -14.84491,15.44469 -9.8966,5.99794 -24.4416,5.99794 z m 12.59567,-49.33305 q -0.74974,-5.69805 -4.19855,-8.99691 -3.44882,-3.29887 -8.84697,-3.29887 -5.39814,0 -8.84696,3.29887 -3.44881,3.29886 -4.19856,8.99691 l 26.09104,0 z"
         style="font-style:normal;font-variant:normal;font-weight:900;font-stretch:normal;font-family:Raleway;-inkscape-font-specification:'Raleway Heavy';fill:#ffffff"
         id="path3351"
         inkscape:connector-curvature="0" />
      <path
         style="font-style:normal;font-variant:normal;font-weight:900;font-stretch:normal;font-family:Raleway;-inkscape-font-specification:'Raleway Heavy';fill:#ffffff"
         d="m 447.18555,119.24609 c -2.98943,0.6583 -5.85492,1.92019 -8.58985,3.8086 -4.09859,2.79904 -7.54666,6.84635 -10.3457,12.14453 l 0,-14.99414 -26.0918,0 0,78.87304 28.49024,0 0,-46.7832 c 2.19924,-2.79904 5.54842,-4.79846 10.04687,-5.99804 4.02425,-1.07314 8.45124,-1.66204 13.27539,-1.7754 l -0.41797,-1.26562 1.54102,-0.50781 -0.63867,-1.89649 -1.53125,0.50586 -0.62695,-1.90039 1.51953,-0.50195 -0.63672,-1.89453 -1.50977,0.49804 -0.62695,-1.89843 1.49805,-0.4961 -0.63672,-1.89648 -1.49024,0.49219 -0.62695,-1.89844 1.47851,-0.48828 -0.63671,-1.89453 -1.46875,0.48437 -0.62696,-1.89844 1.45703,-0.48242 -0.63867,-1.89648 -1.44726,0.47851 -0.62696,-1.89844 1.4375,-0.4746 -0.63867,-1.89649 -1.42578,0.47266 -0.62695,-1.90039 1.41601,-0.4668 -0.2539,-0.75391 z"
         transform="translate(19.285714,147.85714)"
         id="path3353"
         inkscape:connector-curvature="0" />
      <path
         d="m 501.62229,346.93567 -26.54088,-78.87291 29.23995,0 14.09516,56.53058 14.24511,-56.53058 26.54089,0 -26.54089,78.87291 -31.03934,0 z"
         style="font-style:normal;font-variant:normal;font-weight:900;font-stretch:normal;font-family:Raleway;-inkscape-font-specification:'Raleway Heavy';fill:#ffffff"
         id="path3355"
         inkscape:connector-curvature="0" />
      <path
         d="m 619.43496,292.35441 q -8.24717,0 -14.99485,1.79939 -6.74769,1.79938 -10.04655,5.99794 l 0,46.78393 -28.49022,0 0,-78.87291 26.09104,0 0,14.99485 q 4.19856,-7.94727 10.34645,-12.14583 6.29783,-4.34851 13.49536,-4.34851 2.84902,0 3.59877,0.14995 l 0,25.64119 z"
         style="font-style:normal;font-variant:normal;font-weight:900;font-stretch:normal;font-family:Raleway;-inkscape-font-specification:'Raleway Heavy';fill:#ffffff"
         id="path3357"
         inkscape:connector-curvature="0" />
    </g>
  </g>
</svg>
